<svg width="136" height="136" viewBox="0 0 136 136" fill="none" xmlns="http://www.w3.org/2000/svg">
<g clip-path="url(#clip0_99_4073)" filter="url(#filter0_i_99_4073)">
<path d="M135.421 133.572C126.813 127.708 120.035 119.121 116.211 109.362C125.944 97.6399 131.762 82.4763 131.611 65.9347C131.275 29.4169 101.431 -0.251343 65.3348 0.00160554C28.7649 0.261211 -0.710732 30.695 0.0131618 67.9051C0.697571 103.231 28.9887 132.101 63.9001 133.099C75.4627 133.432 86.3803 130.743 95.9357 125.757C107.656 132.201 121.535 135.589 134.638 135.995C135.947 136.035 136.507 134.304 135.421 133.565V133.572Z" fill="url(#paint0_linear_99_4073)"/>
<g opacity="0.9" filter="url(#filter1_i_99_4073)">
<circle cx="66.5532" cy="67.9997" r="7.23404" fill="white" fill-opacity="0.7"/>
<circle cx="44.8511" cy="67.9997" r="7.23404" fill="white"/>
<circle cx="88.2553" cy="67.9997" r="7.23404" fill="white" fill-opacity="0.5"/>
</g>
</g>
<defs>
<filter id="filter0_i_99_4073" x="0" y="-4" width="136" height="140" filterUnits="userSpaceOnUse" color-interpolation-filters="sRGB">
<feFlood flood-opacity="0" result="BackgroundImageFix"/>
<feBlend mode="normal" in="SourceGraphic" in2="BackgroundImageFix" result="shape"/>
<feColorMatrix in="SourceAlpha" type="matrix" values="0 0 0 0 0 0 0 0 0 0 0 0 0 0 0 0 0 0 127 0" result="hardAlpha"/>
<feOffset dy="-4"/>
<feGaussianBlur stdDeviation="5"/>
<feComposite in2="hardAlpha" operator="arithmetic" k2="-1" k3="1"/>
<feColorMatrix type="matrix" values="0 0 0 0 0.428686 0 0 0 0 0.331271 0 0 0 0 0.0918625 0 0 0 0.2 0"/>
<feBlend mode="normal" in2="shape" result="effect1_innerShadow_99_4073"/>
</filter>
<filter id="filter1_i_99_4073" x="37.617" y="58.7656" width="57.8723" height="16.4688" filterUnits="userSpaceOnUse" color-interpolation-filters="sRGB">
<feFlood flood-opacity="0" result="BackgroundImageFix"/>
<feBlend mode="normal" in="SourceGraphic" in2="BackgroundImageFix" result="shape"/>
<feColorMatrix in="SourceAlpha" type="matrix" values="0 0 0 0 0 0 0 0 0 0 0 0 0 0 0 0 0 0 127 0" result="hardAlpha"/>
<feOffset dy="-2"/>
<feGaussianBlur stdDeviation="1"/>
<feComposite in2="hardAlpha" operator="arithmetic" k2="-1" k3="1"/>
<feColorMatrix type="matrix" values="0 0 0 0 0 0 0 0 0 0 0 0 0 0 0 0 0 0 0.1 0"/>
<feBlend mode="normal" in2="shape" result="effect1_innerShadow_99_4073"/>
</filter>
<linearGradient id="paint0_linear_99_4073" x1="67.998" y1="0" x2="67.998" y2="135.996" gradientUnits="userSpaceOnUse">
<stop stop-color="#B82D28"/>
<stop offset="1" stop-color="#FE312A"/>
</linearGradient>
<clipPath id="clip0_99_4073">
<rect width="136" height="136" fill="white"/>
</clipPath>
</defs>
</svg>
