<svg width="132" height="164" viewBox="0 0 132 164" fill="none" xmlns="http://www.w3.org/2000/svg">
<g filter="url(#filter0_i_99_4085)">
<path d="M80.6667 0H7.33333C3.28325 0 0 3.28325 0 7.33333V80.6667C0 84.7168 3.28325 88 7.33333 88H80.6667C84.7168 88 88 84.7168 88 80.6667V7.33333C88 3.28325 84.7168 0 80.6667 0Z" fill="url(#paint0_linear_99_4085)"/>
</g>
<g filter="url(#filter1_di_99_4085)">
<path d="M80.9853 36.1333C76.9316 36.1333 72.9953 36.637 69.2353 37.5852V22.4444C69.2353 14.4593 62.8169 8 54.915 8H54.1953C46.2787 8 39.875 14.4741 39.875 22.4444V59.837C36.1297 66.4296 34 74 34 82.0741C34 107.437 55.0472 128 81 128C106.953 128 128 107.437 128 82.0741C128 56.7111 106.953 36.1481 81 36.1481L80.9853 36.1333Z" fill="url(#paint1_linear_99_4085)"/>
</g>
<g filter="url(#filter2_i_99_4085)">
<path d="M117.8 109H44.2C42.4327 109 41 110.421 41 112.174V160.826C41 162.579 42.4327 164 44.2 164H117.8C119.567 164 121 162.579 121 160.826V112.174C121 110.421 119.567 109 117.8 109Z" fill="url(#paint2_linear_99_4085)"/>
</g>
<defs>
<filter id="filter0_i_99_4085" x="0" y="-4" width="88" height="92" filterUnits="userSpaceOnUse" color-interpolation-filters="sRGB">
<feFlood flood-opacity="0" result="BackgroundImageFix"/>
<feBlend mode="normal" in="SourceGraphic" in2="BackgroundImageFix" result="shape"/>
<feColorMatrix in="SourceAlpha" type="matrix" values="0 0 0 0 0 0 0 0 0 0 0 0 0 0 0 0 0 0 127 0" result="hardAlpha"/>
<feOffset dy="-4"/>
<feGaussianBlur stdDeviation="5"/>
<feComposite in2="hardAlpha" operator="arithmetic" k2="-1" k3="1"/>
<feColorMatrix type="matrix" values="0 0 0 0 0.428686 0 0 0 0 0.331271 0 0 0 0 0.0918625 0 0 0 0.2 0"/>
<feBlend mode="normal" in2="shape" result="effect1_innerShadow_99_4085"/>
</filter>
<filter id="filter1_di_99_4085" x="30" y="4" width="102" height="132" filterUnits="userSpaceOnUse" color-interpolation-filters="sRGB">
<feFlood flood-opacity="0" result="BackgroundImageFix"/>
<feColorMatrix in="SourceAlpha" type="matrix" values="0 0 0 0 0 0 0 0 0 0 0 0 0 0 0 0 0 0 127 0" result="hardAlpha"/>
<feOffset dy="4"/>
<feGaussianBlur stdDeviation="2"/>
<feComposite in2="hardAlpha" operator="out"/>
<feColorMatrix type="matrix" values="0 0 0 0 0 0 0 0 0 0 0 0 0 0 0 0 0 0 0.1 0"/>
<feBlend mode="normal" in2="BackgroundImageFix" result="effect1_dropShadow_99_4085"/>
<feBlend mode="normal" in="SourceGraphic" in2="effect1_dropShadow_99_4085" result="shape"/>
<feColorMatrix in="SourceAlpha" type="matrix" values="0 0 0 0 0 0 0 0 0 0 0 0 0 0 0 0 0 0 127 0" result="hardAlpha"/>
<feOffset dy="-4"/>
<feGaussianBlur stdDeviation="5"/>
<feComposite in2="hardAlpha" operator="arithmetic" k2="-1" k3="1"/>
<feColorMatrix type="matrix" values="0 0 0 0 0.307939 0 0 0 0 0.187722 0 0 0 0 0.114863 0 0 0 0.2 0"/>
<feBlend mode="normal" in2="shape" result="effect2_innerShadow_99_4085"/>
</filter>
<filter id="filter2_i_99_4085" x="41" y="105" width="80" height="59" filterUnits="userSpaceOnUse" color-interpolation-filters="sRGB">
<feFlood flood-opacity="0" result="BackgroundImageFix"/>
<feBlend mode="normal" in="SourceGraphic" in2="BackgroundImageFix" result="shape"/>
<feColorMatrix in="SourceAlpha" type="matrix" values="0 0 0 0 0 0 0 0 0 0 0 0 0 0 0 0 0 0 127 0" result="hardAlpha"/>
<feOffset dy="-4"/>
<feGaussianBlur stdDeviation="5"/>
<feComposite in2="hardAlpha" operator="arithmetic" k2="-1" k3="1"/>
<feColorMatrix type="matrix" values="0 0 0 0 0.0897247 0 0 0 0 0.0849106 0 0 0 0 0.0847374 0 0 0 0.2 0"/>
<feBlend mode="normal" in2="shape" result="effect1_innerShadow_99_4085"/>
</filter>
<linearGradient id="paint0_linear_99_4085" x1="44" y1="0" x2="44" y2="88" gradientUnits="userSpaceOnUse">
<stop stop-color="#F6CA5C"/>
<stop offset="1" stop-color="#FFDE8D"/>
</linearGradient>
<linearGradient id="paint1_linear_99_4085" x1="81" y1="8" x2="81" y2="128" gradientUnits="userSpaceOnUse">
<stop stop-color="#FDDCC8"/>
<stop offset="1" stop-color="#FFCEB0"/>
</linearGradient>
<linearGradient id="paint2_linear_99_4085" x1="81" y1="109" x2="81" y2="164" gradientUnits="userSpaceOnUse">
<stop stop-color="#B82D28"/>
<stop offset="1" stop-color="#D43933"/>
</linearGradient>
</defs>
</svg>
